<svg xmlns="http://www.w3.org/2000/svg" viewBox="0 0 400 215" width="400" height="215">
  <g fill="white" opacity="0.9">
    <circle cx="156.09" cy="207.24" r="1.9"/>
    <circle cx="156.78" cy="201.76" r="1.9"/>
    <circle cx="158.15" cy="196.40" r="1.9"/>
    <circle cx="160.19" cy="191.27" r="1.9"/>
    <circle cx="162.85" cy="186.42" r="1.9"/>
    <circle cx="166.10" cy="181.95" r="1.9"/>
    <circle cx="169.88" cy="177.93" r="1.9"/>
    <circle cx="174.14" cy="174.40" r="1.9"/>
    <circle cx="178.80" cy="171.44" r="1.9"/>
    <circle cx="183.80" cy="169.09" r="1.9"/>
    <circle cx="189.06" cy="167.38" r="1.9"/>
    <circle cx="194.49" cy="166.35" r="1.9"/>
    <circle cx="200.00" cy="166.00" r="1.9"/>
    <circle cx="205.51" cy="166.35" r="1.9"/>
    <circle cx="210.94" cy="167.38" r="1.9"/>
    <circle cx="216.20" cy="169.09" r="1.9"/>
    <circle cx="221.20" cy="171.44" r="1.9"/>
    <circle cx="225.86" cy="174.40" r="1.9"/>
    <circle cx="230.12" cy="177.93" r="1.9"/>
    <circle cx="233.90" cy="181.95" r="1.9"/>
    <circle cx="237.15" cy="186.42" r="1.9"/>
    <circle cx="239.81" cy="191.27" r="1.9"/>
    <circle cx="241.85" cy="196.40" r="1.9"/>
    <circle cx="243.22" cy="201.76" r="1.9"/>
    <circle cx="243.91" cy="207.24" r="1.9"/>
    <circle cx="142.07" cy="207.24" r="1.9"/>
    <circle cx="142.59" cy="201.75" r="1.9"/>
    <circle cx="143.63" cy="196.33" r="1.9"/>
    <circle cx="145.19" cy="191.03" r="1.9"/>
    <circle cx="147.24" cy="185.91" r="1.9"/>
    <circle cx="149.77" cy="181.00" r="1.9"/>
    <circle cx="152.75" cy="176.36" r="1.9"/>
    <circle cx="156.17" cy="172.02" r="1.9"/>
    <circle cx="159.98" cy="168.02" r="1.9"/>
    <circle cx="164.15" cy="164.41" r="1.9"/>
    <circle cx="168.64" cy="161.21" r="1.9"/>
    <circle cx="173.42" cy="158.45" r="1.9"/>
    <circle cx="178.44" cy="156.15" r="1.9"/>
    <circle cx="183.66" cy="154.35" r="1.9"/>
    <circle cx="189.02" cy="153.05" r="1.9"/>
    <circle cx="194.49" cy="152.26" r="1.9"/>
    <circle cx="200.00" cy="152.00" r="1.9"/>
    <circle cx="205.51" cy="152.26" r="1.9"/>
    <circle cx="210.98" cy="153.05" r="1.9"/>
    <circle cx="216.34" cy="154.35" r="1.9"/>
    <circle cx="221.56" cy="156.15" r="1.9"/>
    <circle cx="226.58" cy="158.45" r="1.9"/>
    <circle cx="231.36" cy="161.21" r="1.9"/>
    <circle cx="235.85" cy="164.41" r="1.9"/>
    <circle cx="240.02" cy="168.02" r="1.9"/>
    <circle cx="243.83" cy="172.02" r="1.9"/>
    <circle cx="247.25" cy="176.36" r="1.9"/>
    <circle cx="250.23" cy="181.00" r="1.9"/>
    <circle cx="252.76" cy="185.91" r="1.9"/>
    <circle cx="254.81" cy="191.03" r="1.9"/>
    <circle cx="256.37" cy="196.33" r="1.9"/>
    <circle cx="257.41" cy="201.75" r="1.9"/>
    <circle cx="257.93" cy="207.24" r="1.9"/>
    <circle cx="128.06" cy="207.17" r="1.9"/>
    <circle cx="128.50" cy="201.54" r="1.9"/>
    <circle cx="129.38" cy="195.95" r="1.9"/>
    <circle cx="130.70" cy="190.46" r="1.9"/>
    <circle cx="132.45" cy="185.08" r="1.9"/>
    <circle cx="134.61" cy="179.86" r="1.9"/>
    <circle cx="137.18" cy="174.82" r="1.9"/>
    <circle cx="140.13" cy="170.00" r="1.9"/>
    <circle cx="143.46" cy="165.43" r="1.9"/>
    <circle cx="147.13" cy="161.13" r="1.9"/>
    <circle cx="151.13" cy="157.13" r="1.9"/>
    <circle cx="155.43" cy="153.46" r="1.9"/>
    <circle cx="160.00" cy="150.13" r="1.9"/>
    <circle cx="164.82" cy="147.18" r="1.9"/>
    <circle cx="169.86" cy="144.61" r="1.9"/>
    <circle cx="175.08" cy="142.45" r="1.9"/>
    <circle cx="180.46" cy="140.70" r="1.9"/>
    <circle cx="185.95" cy="139.38" r="1.9"/>
    <circle cx="191.54" cy="138.50" r="1.9"/>
    <circle cx="197.17" cy="138.06" r="1.9"/>
    <circle cx="202.83" cy="138.06" r="1.9"/>
    <circle cx="208.46" cy="138.50" r="1.9"/>
    <circle cx="214.05" cy="139.38" r="1.9"/>
    <circle cx="219.54" cy="140.70" r="1.9"/>
    <circle cx="224.92" cy="142.45" r="1.9"/>
    <circle cx="230.14" cy="144.61" r="1.9"/>
    <circle cx="235.18" cy="147.18" r="1.9"/>
    <circle cx="240.00" cy="150.13" r="1.9"/>
    <circle cx="244.57" cy="153.46" r="1.9"/>
    <circle cx="248.87" cy="157.13" r="1.9"/>
    <circle cx="252.87" cy="161.13" r="1.9"/>
    <circle cx="256.54" cy="165.43" r="1.9"/>
    <circle cx="259.87" cy="170.00" r="1.9"/>
    <circle cx="262.82" cy="174.82" r="1.9"/>
    <circle cx="265.39" cy="179.86" r="1.9"/>
    <circle cx="267.55" cy="185.08" r="1.9"/>
    <circle cx="269.30" cy="190.46" r="1.9"/>
    <circle cx="270.62" cy="195.95" r="1.9"/>
    <circle cx="271.50" cy="201.54" r="1.9"/>
    <circle cx="271.94" cy="207.17" r="1.9"/>
    <circle cx="114.05" cy="207.19" r="1.9"/>
    <circle cx="114.41" cy="201.57" r="1.9"/>
    <circle cx="115.15" cy="195.99" r="1.9"/>
    <circle cx="116.25" cy="190.47" r="1.9"/>
    <circle cx="117.70" cy="185.04" r="1.9"/>
    <circle cx="119.51" cy="179.71" r="1.9"/>
    <circle cx="121.67" cy="174.51" r="1.9"/>
    <circle cx="124.15" cy="169.46" r="1.9"/>
    <circle cx="126.97" cy="164.59" r="1.9"/>
    <circle cx="130.10" cy="159.91" r="1.9"/>
    <circle cx="133.52" cy="155.44" r="1.9"/>
    <circle cx="137.23" cy="151.21" r="1.9"/>
    <circle cx="141.21" cy="147.23" r="1.9"/>
    <circle cx="145.44" cy="143.52" r="1.9"/>
    <circle cx="149.91" cy="140.10" r="1.9"/>
    <circle cx="154.59" cy="136.97" r="1.9"/>
    <circle cx="159.46" cy="134.15" r="1.9"/>
    <circle cx="164.51" cy="131.67" r="1.9"/>
    <circle cx="169.71" cy="129.51" r="1.9"/>
    <circle cx="175.04" cy="127.70" r="1.9"/>
    <circle cx="180.47" cy="126.25" r="1.9"/>
    <circle cx="185.99" cy="125.15" r="1.9"/>
    <circle cx="191.57" cy="124.41" r="1.9"/>
    <circle cx="197.19" cy="124.05" r="1.9"/>
    <circle cx="202.81" cy="124.05" r="1.9"/>
    <circle cx="208.43" cy="124.41" r="1.9"/>
    <circle cx="214.01" cy="125.15" r="1.9"/>
    <circle cx="219.53" cy="126.25" r="1.9"/>
    <circle cx="224.96" cy="127.70" r="1.9"/>
    <circle cx="230.29" cy="129.51" r="1.9"/>
    <circle cx="235.49" cy="131.67" r="1.9"/>
    <circle cx="240.54" cy="134.15" r="1.9"/>
    <circle cx="245.41" cy="136.97" r="1.9"/>
    <circle cx="250.09" cy="140.10" r="1.9"/>
    <circle cx="254.56" cy="143.52" r="1.9"/>
    <circle cx="258.79" cy="147.23" r="1.9"/>
    <circle cx="262.77" cy="151.21" r="1.9"/>
    <circle cx="266.48" cy="155.44" r="1.9"/>
    <circle cx="269.90" cy="159.91" r="1.9"/>
    <circle cx="273.03" cy="164.59" r="1.9"/>
    <circle cx="275.85" cy="169.46" r="1.9"/>
    <circle cx="278.33" cy="174.51" r="1.9"/>
    <circle cx="280.49" cy="179.71" r="1.9"/>
    <circle cx="282.30" cy="185.04" r="1.9"/>
    <circle cx="283.75" cy="190.47" r="1.9"/>
    <circle cx="284.85" cy="195.99" r="1.9"/>
    <circle cx="285.59" cy="201.57" r="1.9"/>
    <circle cx="285.95" cy="207.19" r="1.9"/>
    <circle cx="100.04" cy="207.20" r="1.9"/>
    <circle cx="100.35" cy="201.59" r="1.9"/>
    <circle cx="100.98" cy="196.02" r="1.9"/>
    <circle cx="101.92" cy="190.49" r="1.9"/>
    <circle cx="103.17" cy="185.02" r="1.9"/>
    <circle cx="104.72" cy="179.63" r="1.9"/>
    <circle cx="106.58" cy="174.34" r="1.9"/>
    <circle cx="108.72" cy="169.16" r="1.9"/>
    <circle cx="111.16" cy="164.10" r="1.9"/>
    <circle cx="113.87" cy="159.19" r="1.9"/>
    <circle cx="116.85" cy="154.44" r="1.9"/>
    <circle cx="120.10" cy="149.87" r="1.9"/>
    <circle cx="123.60" cy="145.48" r="1.9"/>
    <circle cx="127.33" cy="141.30" r="1.9"/>
    <circle cx="131.30" cy="137.33" r="1.9"/>
    <circle cx="135.48" cy="133.60" r="1.9"/>
    <circle cx="139.87" cy="130.10" r="1.9"/>
    <circle cx="144.44" cy="126.85" r="1.9"/>
    <circle cx="149.19" cy="123.87" r="1.9"/>
    <circle cx="154.10" cy="121.16" r="1.9"/>
    <circle cx="159.16" cy="118.72" r="1.9"/>
    <circle cx="164.34" cy="116.58" r="1.9"/>
    <circle cx="169.63" cy="114.72" r="1.9"/>
    <circle cx="175.02" cy="113.17" r="1.9"/>
    <circle cx="180.49" cy="111.92" r="1.9"/>
    <circle cx="186.02" cy="110.98" r="1.9"/>
    <circle cx="191.59" cy="110.35" r="1.9"/>
    <circle cx="197.20" cy="110.04" r="1.9"/>
    <circle cx="202.80" cy="110.04" r="1.9"/>
    <circle cx="208.41" cy="110.35" r="1.9"/>
    <circle cx="213.98" cy="110.98" r="1.9"/>
    <circle cx="219.51" cy="111.92" r="1.9"/>
    <circle cx="224.98" cy="113.17" r="1.9"/>
    <circle cx="230.37" cy="114.72" r="1.9"/>
    <circle cx="235.66" cy="116.58" r="1.9"/>
    <circle cx="240.84" cy="118.72" r="1.9"/>
    <circle cx="245.90" cy="121.16" r="1.9"/>
    <circle cx="250.81" cy="123.87" r="1.9"/>
    <circle cx="255.56" cy="126.85" r="1.9"/>
    <circle cx="260.13" cy="130.10" r="1.9"/>
    <circle cx="264.52" cy="133.60" r="1.9"/>
    <circle cx="268.70" cy="137.33" r="1.9"/>
    <circle cx="272.67" cy="141.30" r="1.9"/>
    <circle cx="276.40" cy="145.48" r="1.9"/>
    <circle cx="279.90" cy="149.87" r="1.9"/>
    <circle cx="283.15" cy="154.44" r="1.9"/>
    <circle cx="286.13" cy="159.19" r="1.9"/>
    <circle cx="288.84" cy="164.10" r="1.9"/>
    <circle cx="291.28" cy="169.16" r="1.9"/>
    <circle cx="293.42" cy="174.34" r="1.9"/>
    <circle cx="295.28" cy="179.63" r="1.9"/>
    <circle cx="296.83" cy="185.02" r="1.9"/>
    <circle cx="298.08" cy="190.49" r="1.9"/>
    <circle cx="299.02" cy="196.02" r="1.9"/>
    <circle cx="299.65" cy="201.59" r="1.9"/>
    <circle cx="299.96" cy="207.20" r="1.9"/>
    <circle cx="86.03" cy="207.20" r="1.9"/>
    <circle cx="86.31" cy="201.61" r="1.9"/>
    <circle cx="86.86" cy="196.05" r="1.9"/>
    <circle cx="87.68" cy="190.51" r="1.9"/>
    <circle cx="88.77" cy="185.02" r="1.9"/>
    <circle cx="90.13" cy="179.59" r="1.9"/>
    <circle cx="91.75" cy="174.24" r="1.9"/>
    <circle cx="93.64" cy="168.97" r="1.9"/>
    <circle cx="95.78" cy="163.80" r="1.9"/>
    <circle cx="98.17" cy="158.74" r="1.9"/>
    <circle cx="100.81" cy="153.81" r="1.9"/>
    <circle cx="103.69" cy="149.01" r="1.9"/>
    <circle cx="106.80" cy="144.36" r="1.9"/>
    <circle cx="110.13" cy="139.86" r="1.9"/>
    <circle cx="113.68" cy="135.54" r="1.9"/>
    <circle cx="117.44" cy="131.39" r="1.9"/>
    <circle cx="121.39" cy="127.44" r="1.9"/>
    <circle cx="125.54" cy="123.68" r="1.9"/>
    <circle cx="129.86" cy="120.13" r="1.9"/>
    <circle cx="134.36" cy="116.80" r="1.9"/>
    <circle cx="139.01" cy="113.69" r="1.9"/>
    <circle cx="143.81" cy="110.81" r="1.9"/>
    <circle cx="148.74" cy="108.17" r="1.9"/>
    <circle cx="153.80" cy="105.78" r="1.9"/>
    <circle cx="158.97" cy="103.64" r="1.9"/>
    <circle cx="164.24" cy="101.75" r="1.9"/>
    <circle cx="169.59" cy="100.13" r="1.9"/>
    <circle cx="175.02" cy="98.77" r="1.9"/>
    <circle cx="180.51" cy="97.68" r="1.9"/>
    <circle cx="186.05" cy="96.86" r="1.9"/>
    <circle cx="191.61" cy="96.31" r="1.9"/>
    <circle cx="197.20" cy="96.03" r="1.9"/>
    <circle cx="202.80" cy="96.03" r="1.9"/>
    <circle cx="208.39" cy="96.31" r="1.9"/>
    <circle cx="213.95" cy="96.86" r="1.9"/>
    <circle cx="219.49" cy="97.68" r="1.9"/>
    <circle cx="224.98" cy="98.77" r="1.9"/>
    <circle cx="230.41" cy="100.13" r="1.9"/>
    <circle cx="235.76" cy="101.75" r="1.9"/>
    <circle cx="241.03" cy="103.64" r="1.9"/>
    <circle cx="246.20" cy="105.78" r="1.9"/>
    <circle cx="251.26" cy="108.17" r="1.9"/>
    <circle cx="256.19" cy="110.81" r="1.9"/>
    <circle cx="260.99" cy="113.69" r="1.9"/>
    <circle cx="265.64" cy="116.80" r="1.9"/>
    <circle cx="270.14" cy="120.13" r="1.9"/>
    <circle cx="274.46" cy="123.68" r="1.9"/>
    <circle cx="278.61" cy="127.44" r="1.9"/>
    <circle cx="282.56" cy="131.39" r="1.9"/>
    <circle cx="286.32" cy="135.54" r="1.9"/>
    <circle cx="289.87" cy="139.86" r="1.9"/>
    <circle cx="293.20" cy="144.36" r="1.9"/>
    <circle cx="296.31" cy="149.01" r="1.9"/>
    <circle cx="299.19" cy="153.81" r="1.9"/>
    <circle cx="301.83" cy="158.74" r="1.9"/>
    <circle cx="304.22" cy="163.80" r="1.9"/>
    <circle cx="306.36" cy="168.97" r="1.9"/>
    <circle cx="308.25" cy="174.24" r="1.9"/>
    <circle cx="309.87" cy="179.59" r="1.9"/>
    <circle cx="311.23" cy="185.02" r="1.9"/>
    <circle cx="312.32" cy="190.51" r="1.9"/>
    <circle cx="313.14" cy="196.05" r="1.9"/>
    <circle cx="313.69" cy="201.61" r="1.9"/>
    <circle cx="313.97" cy="207.20" r="1.9"/>
    <circle cx="72.03" cy="207.21" r="1.9"/>
    <circle cx="72.27" cy="201.63" r="1.9"/>
    <circle cx="72.76" cy="196.07" r="1.9"/>
    <circle cx="73.49" cy="190.53" r="1.9"/>
    <circle cx="74.46" cy="185.03" r="1.9"/>
    <circle cx="75.67" cy="179.58" r="1.9"/>
    <circle cx="77.11" cy="174.18" r="1.9"/>
    <circle cx="78.79" cy="168.86" r="1.9"/>
    <circle cx="80.70" cy="163.61" r="1.9"/>
    <circle cx="82.84" cy="158.45" r="1.9"/>
    <circle cx="85.20" cy="153.39" r="1.9"/>
    <circle cx="87.78" cy="148.43" r="1.9"/>
    <circle cx="90.57" cy="143.60" r="1.9"/>
    <circle cx="93.57" cy="138.89" r="1.9"/>
    <circle cx="96.78" cy="134.31" r="1.9"/>
    <circle cx="100.17" cy="129.88" r="1.9"/>
    <circle cx="103.76" cy="125.60" r="1.9"/>
    <circle cx="107.54" cy="121.49" r="1.9"/>
    <circle cx="111.49" cy="117.54" r="1.9"/>
    <circle cx="115.60" cy="113.76" r="1.9"/>
    <circle cx="119.88" cy="110.17" r="1.9"/>
    <circle cx="124.31" cy="106.78" r="1.9"/>
    <circle cx="128.89" cy="103.57" r="1.9"/>
    <circle cx="133.60" cy="100.57" r="1.9"/>
    <circle cx="138.43" cy="97.78" r="1.9"/>
    <circle cx="143.39" cy="95.20" r="1.9"/>
    <circle cx="148.45" cy="92.84" r="1.9"/>
    <circle cx="153.61" cy="90.70" r="1.9"/>
    <circle cx="158.86" cy="88.79" r="1.9"/>
    <circle cx="164.18" cy="87.11" r="1.9"/>
    <circle cx="169.58" cy="85.67" r="1.9"/>
    <circle cx="175.03" cy="84.46" r="1.9"/>
    <circle cx="180.53" cy="83.49" r="1.9"/>
    <circle cx="186.07" cy="82.76" r="1.9"/>
    <circle cx="191.63" cy="82.27" r="1.9"/>
    <circle cx="197.21" cy="82.03" r="1.9"/>
    <circle cx="202.79" cy="82.03" r="1.9"/>
    <circle cx="208.37" cy="82.27" r="1.9"/>
    <circle cx="213.93" cy="82.76" r="1.9"/>
    <circle cx="219.47" cy="83.49" r="1.9"/>
    <circle cx="224.97" cy="84.46" r="1.9"/>
    <circle cx="230.42" cy="85.67" r="1.9"/>
    <circle cx="235.82" cy="87.11" r="1.9"/>
    <circle cx="241.14" cy="88.79" r="1.9"/>
    <circle cx="246.39" cy="90.70" r="1.9"/>
    <circle cx="251.55" cy="92.84" r="1.9"/>
    <circle cx="256.61" cy="95.20" r="1.9"/>
    <circle cx="261.57" cy="97.78" r="1.9"/>
    <circle cx="266.40" cy="100.57" r="1.9"/>
    <circle cx="271.11" cy="103.57" r="1.9"/>
    <circle cx="275.69" cy="106.78" r="1.9"/>
    <circle cx="280.12" cy="110.17" r="1.9"/>
    <circle cx="284.40" cy="113.76" r="1.9"/>
    <circle cx="288.51" cy="117.54" r="1.9"/>
    <circle cx="292.46" cy="121.49" r="1.9"/>
    <circle cx="296.24" cy="125.60" r="1.9"/>
    <circle cx="299.83" cy="129.88" r="1.9"/>
    <circle cx="303.22" cy="134.31" r="1.9"/>
    <circle cx="306.43" cy="138.89" r="1.9"/>
    <circle cx="309.43" cy="143.60" r="1.9"/>
    <circle cx="312.22" cy="148.43" r="1.9"/>
    <circle cx="314.80" cy="153.39" r="1.9"/>
    <circle cx="317.16" cy="158.45" r="1.9"/>
    <circle cx="319.30" cy="163.61" r="1.9"/>
    <circle cx="321.21" cy="168.86" r="1.9"/>
    <circle cx="322.89" cy="174.18" r="1.9"/>
    <circle cx="324.33" cy="179.58" r="1.9"/>
    <circle cx="325.54" cy="185.03" r="1.9"/>
    <circle cx="326.51" cy="190.53" r="1.9"/>
    <circle cx="327.24" cy="196.07" r="1.9"/>
    <circle cx="327.73" cy="201.63" r="1.9"/>
    <circle cx="327.97" cy="207.21" r="1.9"/>
    <circle cx="58.03" cy="207.21" r="1.9"/>
    <circle cx="58.25" cy="201.64" r="1.9"/>
    <circle cx="58.68" cy="196.08" r="1.9"/>
    <circle cx="59.34" cy="190.54" r="1.9"/>
    <circle cx="60.21" cy="185.04" r="1.9"/>
    <circle cx="61.30" cy="179.57" r="1.9"/>
    <circle cx="62.60" cy="174.15" r="1.9"/>
    <circle cx="64.11" cy="168.78" r="1.9"/>
    <circle cx="65.84" cy="163.48" r="1.9"/>
    <circle cx="67.77" cy="158.25" r="1.9"/>
    <circle cx="69.90" cy="153.09" r="1.9"/>
    <circle cx="72.24" cy="148.03" r="1.9"/>
    <circle cx="74.77" cy="143.06" r="1.9"/>
    <circle cx="77.49" cy="138.20" r="1.9"/>
    <circle cx="80.41" cy="133.44" r="1.9"/>
    <circle cx="83.50" cy="128.81" r="1.9"/>
    <circle cx="86.78" cy="124.30" r="1.9"/>
    <circle cx="90.23" cy="119.92" r="1.9"/>
    <circle cx="93.85" cy="115.68" r="1.9"/>
    <circle cx="97.64" cy="111.58" r="1.9"/>
    <circle cx="101.58" cy="107.64" r="1.9"/>
    <circle cx="105.68" cy="103.85" r="1.9"/>
    <circle cx="109.92" cy="100.23" r="1.9"/>
    <circle cx="114.30" cy="96.78" r="1.9"/>
    <circle cx="118.81" cy="93.50" r="1.9"/>
    <circle cx="123.44" cy="90.41" r="1.9"/>
    <circle cx="128.20" cy="87.49" r="1.9"/>
    <circle cx="133.06" cy="84.77" r="1.9"/>
    <circle cx="138.03" cy="82.24" r="1.9"/>
    <circle cx="143.09" cy="79.90" r="1.9"/>
    <circle cx="148.25" cy="77.77" r="1.9"/>
    <circle cx="153.48" cy="75.84" r="1.9"/>
    <circle cx="158.78" cy="74.11" r="1.9"/>
    <circle cx="164.15" cy="72.60" r="1.9"/>
    <circle cx="169.57" cy="71.30" r="1.9"/>
    <circle cx="175.04" cy="70.21" r="1.9"/>
    <circle cx="180.54" cy="69.34" r="1.9"/>
    <circle cx="186.08" cy="68.68" r="1.9"/>
    <circle cx="191.64" cy="68.25" r="1.9"/>
    <circle cx="197.21" cy="68.03" r="1.9"/>
    <circle cx="202.79" cy="68.03" r="1.9"/>
    <circle cx="208.36" cy="68.25" r="1.9"/>
    <circle cx="213.92" cy="68.68" r="1.9"/>
    <circle cx="219.46" cy="69.34" r="1.9"/>
    <circle cx="224.96" cy="70.21" r="1.9"/>
    <circle cx="230.43" cy="71.30" r="1.9"/>
    <circle cx="235.85" cy="72.60" r="1.9"/>
    <circle cx="241.22" cy="74.11" r="1.9"/>
    <circle cx="246.52" cy="75.84" r="1.9"/>
    <circle cx="251.75" cy="77.77" r="1.9"/>
    <circle cx="256.91" cy="79.90" r="1.9"/>
    <circle cx="261.97" cy="82.24" r="1.9"/>
    <circle cx="266.94" cy="84.77" r="1.9"/>
    <circle cx="271.80" cy="87.49" r="1.9"/>
    <circle cx="276.56" cy="90.41" r="1.9"/>
    <circle cx="281.19" cy="93.50" r="1.9"/>
    <circle cx="285.70" cy="96.78" r="1.9"/>
    <circle cx="290.08" cy="100.23" r="1.9"/>
    <circle cx="294.32" cy="103.85" r="1.9"/>
    <circle cx="298.42" cy="107.64" r="1.9"/>
    <circle cx="302.36" cy="111.58" r="1.9"/>
    <circle cx="306.15" cy="115.68" r="1.9"/>
    <circle cx="309.77" cy="119.92" r="1.9"/>
    <circle cx="313.22" cy="124.30" r="1.9"/>
    <circle cx="316.50" cy="128.81" r="1.9"/>
    <circle cx="319.59" cy="133.44" r="1.9"/>
    <circle cx="322.51" cy="138.20" r="1.9"/>
    <circle cx="325.23" cy="143.06" r="1.9"/>
    <circle cx="327.76" cy="148.03" r="1.9"/>
    <circle cx="330.10" cy="153.09" r="1.9"/>
    <circle cx="332.23" cy="158.25" r="1.9"/>
    <circle cx="334.16" cy="163.48" r="1.9"/>
    <circle cx="335.89" cy="168.78" r="1.9"/>
    <circle cx="337.40" cy="174.15" r="1.9"/>
    <circle cx="338.70" cy="179.57" r="1.9"/>
    <circle cx="339.79" cy="185.04" r="1.9"/>
    <circle cx="340.66" cy="190.54" r="1.9"/>
    <circle cx="341.32" cy="196.08" r="1.9"/>
    <circle cx="341.75" cy="201.64" r="1.9"/>
    <circle cx="341.97" cy="207.21" r="1.9"/>
    <circle cx="44.02" cy="207.22" r="1.9"/>
    <circle cx="44.22" cy="201.65" r="1.9"/>
    <circle cx="44.62" cy="196.10" r="1.9"/>
    <circle cx="45.22" cy="190.56" r="1.9"/>
    <circle cx="46.01" cy="185.05" r="1.9"/>
    <circle cx="47.00" cy="179.57" r="1.9"/>
    <circle cx="48.18" cy="174.12" r="1.9"/>
    <circle cx="49.56" cy="168.73" r="1.9"/>
    <circle cx="51.13" cy="163.39" r="1.9"/>
    <circle cx="52.89" cy="158.10" r="1.9"/>
    <circle cx="54.83" cy="152.88" r="1.9"/>
    <circle cx="56.96" cy="147.74" r="1.9"/>
    <circle cx="59.28" cy="142.67" r="1.9"/>
    <circle cx="61.77" cy="137.69" r="1.9"/>
    <circle cx="64.44" cy="132.81" r="1.9"/>
    <circle cx="67.28" cy="128.02" r="1.9"/>
    <circle cx="70.29" cy="123.33" r="1.9"/>
    <circle cx="73.47" cy="118.76" r="1.9"/>
    <circle cx="76.80" cy="114.30" r="1.9"/>
    <circle cx="80.30" cy="109.96" r="1.9"/>
    <circle cx="83.95" cy="105.75" r="1.9"/>
    <circle cx="87.74" cy="101.68" r="1.9"/>
    <circle cx="91.68" cy="97.74" r="1.9"/>
    <circle cx="95.75" cy="93.95" r="1.9"/>
    <circle cx="99.96" cy="90.30" r="1.9"/>
    <circle cx="104.30" cy="86.80" r="1.9"/>
    <circle cx="108.76" cy="83.47" r="1.9"/>
    <circle cx="113.33" cy="80.29" r="1.9"/>
    <circle cx="118.02" cy="77.28" r="1.9"/>
    <circle cx="122.81" cy="74.44" r="1.9"/>
    <circle cx="127.69" cy="71.77" r="1.9"/>
    <circle cx="132.67" cy="69.28" r="1.9"/>
    <circle cx="137.74" cy="66.96" r="1.9"/>
    <circle cx="142.88" cy="64.83" r="1.9"/>
    <circle cx="148.10" cy="62.89" r="1.9"/>
    <circle cx="153.39" cy="61.13" r="1.9"/>
    <circle cx="158.73" cy="59.56" r="1.9"/>
    <circle cx="164.12" cy="58.18" r="1.9"/>
    <circle cx="169.57" cy="57.00" r="1.9"/>
    <circle cx="175.05" cy="56.01" r="1.9"/>
    <circle cx="180.56" cy="55.22" r="1.9"/>
    <circle cx="186.10" cy="54.62" r="1.9"/>
    <circle cx="191.65" cy="54.22" r="1.9"/>
    <circle cx="197.22" cy="54.02" r="1.9"/>
    <circle cx="202.78" cy="54.02" r="1.9"/>
    <circle cx="208.35" cy="54.22" r="1.9"/>
    <circle cx="213.90" cy="54.62" r="1.9"/>
    <circle cx="219.44" cy="55.22" r="1.9"/>
    <circle cx="224.95" cy="56.01" r="1.9"/>
    <circle cx="230.43" cy="57.00" r="1.9"/>
    <circle cx="235.88" cy="58.18" r="1.9"/>
    <circle cx="241.27" cy="59.56" r="1.9"/>
    <circle cx="246.61" cy="61.13" r="1.9"/>
    <circle cx="251.90" cy="62.89" r="1.9"/>
    <circle cx="257.12" cy="64.83" r="1.9"/>
    <circle cx="262.26" cy="66.96" r="1.9"/>
    <circle cx="267.33" cy="69.28" r="1.9"/>
    <circle cx="272.31" cy="71.77" r="1.9"/>
    <circle cx="277.19" cy="74.44" r="1.9"/>
    <circle cx="281.98" cy="77.28" r="1.9"/>
    <circle cx="286.67" cy="80.29" r="1.9"/>
    <circle cx="291.24" cy="83.47" r="1.9"/>
    <circle cx="295.70" cy="86.80" r="1.9"/>
    <circle cx="300.04" cy="90.30" r="1.9"/>
    <circle cx="304.25" cy="93.95" r="1.9"/>
    <circle cx="308.32" cy="97.74" r="1.9"/>
    <circle cx="312.26" cy="101.68" r="1.9"/>
    <circle cx="316.05" cy="105.75" r="1.9"/>
    <circle cx="319.70" cy="109.96" r="1.9"/>
    <circle cx="323.20" cy="114.30" r="1.9"/>
    <circle cx="326.53" cy="118.76" r="1.9"/>
    <circle cx="329.71" cy="123.33" r="1.9"/>
    <circle cx="332.72" cy="128.02" r="1.9"/>
    <circle cx="335.56" cy="132.81" r="1.9"/>
    <circle cx="338.23" cy="137.69" r="1.9"/>
    <circle cx="340.72" cy="142.67" r="1.9"/>
    <circle cx="343.04" cy="147.74" r="1.9"/>
    <circle cx="345.17" cy="152.88" r="1.9"/>
    <circle cx="347.11" cy="158.10" r="1.9"/>
    <circle cx="348.87" cy="163.39" r="1.9"/>
    <circle cx="350.44" cy="168.73" r="1.9"/>
    <circle cx="351.82" cy="174.12" r="1.9"/>
    <circle cx="353.00" cy="179.57" r="1.9"/>
    <circle cx="353.99" cy="185.05" r="1.9"/>
    <circle cx="354.78" cy="190.56" r="1.9"/>
    <circle cx="355.38" cy="196.10" r="1.9"/>
    <circle cx="355.78" cy="201.65" r="1.9"/>
    <circle cx="355.98" cy="207.22" r="1.9"/>
    <circle cx="30.02" cy="207.22" r="1.9"/>
    <circle cx="30.20" cy="201.66" r="1.9"/>
    <circle cx="30.57" cy="196.11" r="1.9"/>
    <circle cx="31.11" cy="190.57" r="1.9"/>
    <circle cx="31.84" cy="185.06" r="1.9"/>
    <circle cx="32.75" cy="179.57" r="1.9"/>
    <circle cx="33.83" cy="174.11" r="1.9"/>
    <circle cx="35.09" cy="168.69" r="1.9"/>
    <circle cx="36.53" cy="163.32" r="1.9"/>
    <circle cx="38.15" cy="158.00" r="1.9"/>
    <circle cx="39.94" cy="152.73" r="1.9"/>
    <circle cx="41.90" cy="147.52" r="1.9"/>
    <circle cx="44.03" cy="142.38" r="1.9"/>
    <circle cx="46.32" cy="137.32" r="1.9"/>
    <circle cx="48.78" cy="132.33" r="1.9"/>
    <circle cx="51.40" cy="127.42" r="1.9"/>
    <circle cx="54.19" cy="122.60" r="1.9"/>
    <circle cx="57.12" cy="117.88" r="1.9"/>
    <circle cx="60.21" cy="113.25" r="1.9"/>
    <circle cx="63.45" cy="108.73" r="1.9"/>
    <circle cx="66.84" cy="104.32" r="1.9"/>
    <circle cx="70.37" cy="100.02" r="1.9"/>
    <circle cx="74.04" cy="95.83" r="1.9"/>
    <circle cx="77.84" cy="91.77" r="1.9"/>
    <circle cx="81.77" cy="87.84" r="1.9"/>
    <circle cx="85.83" cy="84.04" r="1.9"/>
    <circle cx="90.02" cy="80.37" r="1.9"/>
    <circle cx="94.32" cy="76.84" r="1.9"/>
    <circle cx="98.73" cy="73.45" r="1.9"/>
    <circle cx="103.25" cy="70.21" r="1.9"/>
    <circle cx="107.88" cy="67.12" r="1.9"/>
    <circle cx="112.60" cy="64.19" r="1.9"/>
    <circle cx="117.42" cy="61.40" r="1.9"/>
    <circle cx="122.33" cy="58.78" r="1.9"/>
    <circle cx="127.32" cy="56.32" r="1.9"/>
    <circle cx="132.38" cy="54.03" r="1.9"/>
    <circle cx="137.52" cy="51.90" r="1.9"/>
    <circle cx="142.73" cy="49.94" r="1.9"/>
    <circle cx="148.00" cy="48.15" r="1.9"/>
    <circle cx="153.32" cy="46.53" r="1.9"/>
    <circle cx="158.69" cy="45.09" r="1.9"/>
    <circle cx="164.11" cy="43.83" r="1.9"/>
    <circle cx="169.57" cy="42.75" r="1.9"/>
    <circle cx="175.06" cy="41.84" r="1.9"/>
    <circle cx="180.57" cy="41.11" r="1.9"/>
    <circle cx="186.11" cy="40.57" r="1.9"/>
    <circle cx="191.66" cy="40.20" r="1.9"/>
    <circle cx="197.22" cy="40.02" r="1.9"/>
    <circle cx="202.78" cy="40.02" r="1.9"/>
    <circle cx="208.34" cy="40.20" r="1.9"/>
    <circle cx="213.89" cy="40.57" r="1.9"/>
    <circle cx="219.43" cy="41.11" r="1.9"/>
    <circle cx="224.94" cy="41.84" r="1.9"/>
    <circle cx="230.43" cy="42.75" r="1.9"/>
    <circle cx="235.89" cy="43.83" r="1.9"/>
    <circle cx="241.31" cy="45.09" r="1.9"/>
    <circle cx="246.68" cy="46.53" r="1.9"/>
    <circle cx="252.00" cy="48.15" r="1.9"/>
    <circle cx="257.27" cy="49.94" r="1.9"/>
    <circle cx="262.48" cy="51.90" r="1.9"/>
    <circle cx="267.62" cy="54.03" r="1.9"/>
    <circle cx="272.68" cy="56.32" r="1.9"/>
    <circle cx="277.67" cy="58.78" r="1.9"/>
    <circle cx="282.58" cy="61.40" r="1.9"/>
    <circle cx="287.40" cy="64.19" r="1.9"/>
    <circle cx="292.12" cy="67.12" r="1.9"/>
    <circle cx="296.75" cy="70.21" r="1.9"/>
    <circle cx="301.27" cy="73.45" r="1.9"/>
    <circle cx="305.68" cy="76.84" r="1.9"/>
    <circle cx="309.98" cy="80.37" r="1.9"/>
    <circle cx="314.17" cy="84.04" r="1.9"/>
    <circle cx="318.23" cy="87.84" r="1.9"/>
    <circle cx="322.16" cy="91.77" r="1.9"/>
    <circle cx="325.96" cy="95.83" r="1.9"/>
    <circle cx="329.63" cy="100.02" r="1.9"/>
    <circle cx="333.16" cy="104.32" r="1.9"/>
    <circle cx="336.55" cy="108.73" r="1.9"/>
    <circle cx="339.79" cy="113.25" r="1.9"/>
    <circle cx="342.88" cy="117.88" r="1.9"/>
    <circle cx="345.81" cy="122.60" r="1.9"/>
    <circle cx="348.60" cy="127.42" r="1.9"/>
    <circle cx="351.22" cy="132.33" r="1.9"/>
    <circle cx="353.68" cy="137.32" r="1.9"/>
    <circle cx="355.97" cy="142.38" r="1.9"/>
    <circle cx="358.10" cy="147.52" r="1.9"/>
    <circle cx="360.06" cy="152.73" r="1.9"/>
    <circle cx="361.85" cy="158.00" r="1.9"/>
    <circle cx="363.47" cy="163.32" r="1.9"/>
    <circle cx="364.91" cy="168.69" r="1.9"/>
    <circle cx="366.17" cy="174.11" r="1.9"/>
    <circle cx="367.25" cy="179.57" r="1.9"/>
    <circle cx="368.16" cy="185.06" r="1.9"/>
    <circle cx="368.89" cy="190.57" r="1.9"/>
    <circle cx="369.43" cy="196.11" r="1.9"/>
    <circle cx="369.80" cy="201.66" r="1.9"/>
    <circle cx="369.98" cy="207.22" r="1.9"/>
    <circle cx="16.02" cy="207.19" r="1.9"/>
    <circle cx="16.19" cy="201.58" r="1.9"/>
    <circle cx="16.53" cy="195.98" r="1.9"/>
    <circle cx="17.05" cy="190.39" r="1.9"/>
    <circle cx="17.73" cy="184.82" r="1.9"/>
    <circle cx="18.58" cy="179.28" r="1.9"/>
    <circle cx="19.60" cy="173.76" r="1.9"/>
    <circle cx="20.79" cy="168.27" r="1.9"/>
    <circle cx="22.15" cy="162.83" r="1.9"/>
    <circle cx="23.67" cy="157.43" r="1.9"/>
    <circle cx="25.36" cy="152.07" r="1.9"/>
    <circle cx="27.20" cy="146.78" r="1.9"/>
    <circle cx="29.21" cy="141.54" r="1.9"/>
    <circle cx="31.38" cy="136.36" r="1.9"/>
    <circle cx="33.70" cy="131.25" r="1.9"/>
    <circle cx="36.18" cy="126.22" r="1.9"/>
    <circle cx="38.81" cy="121.26" r="1.9"/>
    <circle cx="41.59" cy="116.38" r="1.9"/>
    <circle cx="44.52" cy="111.60" r="1.9"/>
    <circle cx="47.60" cy="106.90" r="1.9"/>
    <circle cx="50.81" cy="102.30" r="1.9"/>
    <circle cx="54.17" cy="97.80" r="1.9"/>
    <circle cx="57.65" cy="93.41" r="1.9"/>
    <circle cx="61.28" cy="89.12" r="1.9"/>
    <circle cx="65.03" cy="84.95" r="1.9"/>
    <circle cx="68.90" cy="80.89" r="1.9"/>
    <circle cx="72.90" cy="76.95" r="1.9"/>
    <circle cx="77.02" cy="73.14" r="1.9"/>
    <circle cx="81.25" cy="69.45" r="1.9"/>
    <circle cx="85.59" cy="65.89" r="1.9"/>
    <circle cx="90.04" cy="62.47" r="1.9"/>
    <circle cx="94.59" cy="59.19" r="1.9"/>
    <circle cx="99.24" cy="56.04" r="1.9"/>
    <circle cx="103.98" cy="53.04" r="1.9"/>
    <circle cx="108.81" cy="50.19" r="1.9"/>
    <circle cx="113.73" cy="47.48" r="1.9"/>
    <circle cx="118.72" cy="44.92" r="1.9"/>
    <circle cx="123.80" cy="42.52" r="1.9"/>
    <circle cx="128.94" cy="40.28" r="1.9"/>
    <circle cx="134.15" cy="38.19" r="1.9"/>
    <circle cx="139.42" cy="36.26" r="1.9"/>
    <circle cx="144.74" cy="34.49" r="1.9"/>
    <circle cx="150.12" cy="32.89" r="1.9"/>
    <circle cx="155.55" cy="31.45" r="1.9"/>
    <circle cx="161.01" cy="30.18" r="1.9"/>
    <circle cx="166.51" cy="29.07" r="1.9"/>
    <circle cx="172.05" cy="28.14" r="1.9"/>
    <circle cx="177.61" cy="27.37" r="1.9"/>
    <circle cx="183.19" cy="26.77" r="1.9"/>
    <circle cx="188.78" cy="26.34" r="1.9"/>
    <circle cx="194.39" cy="26.09" r="1.9"/>
    <circle cx="200.00" cy="26.00" r="1.9"/>
    <circle cx="205.61" cy="26.09" r="1.9"/>
    <circle cx="211.22" cy="26.34" r="1.9"/>
    <circle cx="216.81" cy="26.77" r="1.9"/>
    <circle cx="222.39" cy="27.37" r="1.9"/>
    <circle cx="227.95" cy="28.14" r="1.9"/>
    <circle cx="233.49" cy="29.07" r="1.9"/>
    <circle cx="238.99" cy="30.18" r="1.9"/>
    <circle cx="244.45" cy="31.45" r="1.9"/>
    <circle cx="249.88" cy="32.89" r="1.9"/>
    <circle cx="255.26" cy="34.49" r="1.9"/>
    <circle cx="260.58" cy="36.26" r="1.9"/>
    <circle cx="265.85" cy="38.19" r="1.9"/>
    <circle cx="271.06" cy="40.28" r="1.9"/>
    <circle cx="276.20" cy="42.52" r="1.9"/>
    <circle cx="281.28" cy="44.92" r="1.9"/>
    <circle cx="286.27" cy="47.48" r="1.9"/>
    <circle cx="291.19" cy="50.19" r="1.9"/>
    <circle cx="296.02" cy="53.04" r="1.9"/>
    <circle cx="300.76" cy="56.04" r="1.9"/>
    <circle cx="305.41" cy="59.19" r="1.9"/>
    <circle cx="309.96" cy="62.47" r="1.9"/>
    <circle cx="314.41" cy="65.89" r="1.9"/>
    <circle cx="318.75" cy="69.45" r="1.9"/>
    <circle cx="322.98" cy="73.14" r="1.9"/>
    <circle cx="327.10" cy="76.95" r="1.9"/>
    <circle cx="331.10" cy="80.89" r="1.9"/>
    <circle cx="334.97" cy="84.95" r="1.9"/>
    <circle cx="338.72" cy="89.12" r="1.9"/>
    <circle cx="342.35" cy="93.41" r="1.9"/>
    <circle cx="345.83" cy="97.80" r="1.9"/>
    <circle cx="349.19" cy="102.30" r="1.9"/>
    <circle cx="352.40" cy="106.90" r="1.9"/>
    <circle cx="355.48" cy="111.60" r="1.9"/>
    <circle cx="358.41" cy="116.38" r="1.9"/>
    <circle cx="361.19" cy="121.26" r="1.9"/>
    <circle cx="363.82" cy="126.22" r="1.9"/>
    <circle cx="366.30" cy="131.25" r="1.9"/>
    <circle cx="368.62" cy="136.36" r="1.9"/>
    <circle cx="370.79" cy="141.54" r="1.9"/>
    <circle cx="372.80" cy="146.78" r="1.9"/>
    <circle cx="374.64" cy="152.07" r="1.9"/>
    <circle cx="376.33" cy="157.43" r="1.9"/>
    <circle cx="377.85" cy="162.83" r="1.9"/>
    <circle cx="379.21" cy="168.27" r="1.9"/>
    <circle cx="380.40" cy="173.76" r="1.9"/>
    <circle cx="381.42" cy="179.28" r="1.9"/>
    <circle cx="382.27" cy="184.82" r="1.9"/>
    <circle cx="382.95" cy="190.39" r="1.9"/>
    <circle cx="383.47" cy="195.98" r="1.9"/>
    <circle cx="383.81" cy="201.58" r="1.9"/>
    <circle cx="383.98" cy="207.19" r="1.9"/>
  </g>
  <line x1="4" y1="210" x2="396" y2="210" stroke="white" stroke-width="1" opacity="0.3"/>
</svg>